# xmcd
#
# Track frame offsets:
#	150
#	18003
#	35818
#	61704
#	83063
#	105980
#	124831
#	141169
#	151449
#	173803
#	188161
#	219294
#
# Disc length: 3109 seconds
# Revision: 0
# Processed by: cddbd v1.5.2PL0 Copyright (c) Steve Scherf et al.
# Submitted via: dBpowerAMP V12.0
#
DISCID=940c230c
DTITLE=Lenny Henry - New Millennium Blues
DYEAR=2015
DGENRE=Blues
TTITLE0=New Millennium Blues
TTITLE1=Hoochie Coochie Man
TTITLE2=The Cops Don't Know
TTITLE3=Who is He (And What is He to You)?
TTITLE4=If That's Not Good Enough
TTITLE5=The Stealer
TTITLE6=Daughter of a Preacher Man
TTITLE7=You're So Fine
TTITLE8=Back Door Man
TTITLE9=Shame, Shame, Shame
TTITLE10=What Kind of Blues?
TTITLE11=Down in the Bottom
EXTD=
EXTT0=
EXTT1=
EXTT2=
EXTT3=
EXTT4=
EXTT5=
EXTT6=
EXTT7=
EXTT8=
EXTT9=
EXTT10=
EXTT11=
PLAYORDER=
